<svg width="22" height="20" viewBox="0 0 22 20" fill="none" xmlns="http://www.w3.org/2000/svg">
<path d="M10.75 1.86745V18.7406M10.75 1.86745L11.8501 1.45461C14.3536 0.515132 17.1464 0.515131 19.6499 1.45461C20.3143 1.70395 20.75 2.30769 20.75 2.97907V16.8297C20.75 17.7516 19.7575 18.382 18.8451 18.0396C16.8582 17.294 14.6418 17.294 12.6549 18.0396L10.7637 18.7493C10.7571 18.7518 10.75 18.7472 10.75 18.7406M10.75 1.86745L9.64986 1.45461C7.14638 0.515132 4.35362 0.515131 1.85014 1.45461C1.18569 1.70395 0.75 2.30769 0.75 2.97907V16.8297C0.75 17.7516 1.74247 18.382 2.65485 18.0396C4.64175 17.294 6.85825 17.294 8.84515 18.0396L10.7363 18.7493C10.7429 18.7518 10.75 18.7472 10.75 18.7406" stroke="#2B3F6C" stroke-width="1.5"/>
</svg>
