<svg width="105" height="28" viewBox="0 0 105 28" fill="none" xmlns="http://www.w3.org/2000/svg">
<path d="M19.396 2.592C19.5173 2.54 19.812 2.52267 20.28 2.54C20.7653 2.55733 21.086 2.58333 21.242 2.618C21.398 2.67 21.6407 2.84333 21.97 3.138C22.2993 3.41533 22.464 3.59733 22.464 3.684C22.464 3.75333 22.5073 3.88333 22.594 4.074C22.6807 4.282 22.7413 4.55933 22.776 4.906C22.7933 5.25267 22.8627 5.51267 22.984 5.686C23.192 5.998 23.322 6.466 23.374 7.09C23.4087 7.52333 23.478 7.87 23.582 8.13C23.686 8.35533 23.7553 8.58067 23.79 8.806C23.842 9.10067 23.9633 9.352 24.154 9.56C24.258 9.68133 24.3447 9.872 24.414 10.132C24.4833 10.392 24.6133 10.6347 24.804 10.86C25.012 11.068 25.116 11.2067 25.116 11.276C25.116 11.328 25.168 11.4233 25.272 11.562C25.6187 11.978 25.7747 12.3333 25.74 12.628C25.7227 12.8187 25.7487 12.992 25.818 13.148C25.9393 13.356 25.9913 13.9453 25.974 14.916C25.9567 15.8693 25.8873 16.5193 25.766 16.866C25.6967 17.0393 25.662 17.2387 25.662 17.464C25.662 17.672 25.6013 17.88 25.48 18.088C25.3413 18.2787 25.194 18.582 25.038 18.998C24.8993 19.414 24.7347 19.6913 24.544 19.83C24.3707 19.9687 24.2493 20.116 24.18 20.272C24.1453 20.376 24.05 20.5147 23.894 20.688C23.738 20.844 23.6253 20.922 23.556 20.922C23.5213 20.922 23.4087 21 23.218 21.156C23.0273 21.312 22.6373 21.5373 22.048 21.832C21.4587 22.1267 21.0773 22.352 20.904 22.508C20.5053 22.872 20.0893 23.0887 19.656 23.158C19.396 23.21 19.0493 23.34 18.616 23.548C18.2693 23.7213 17.888 23.8253 17.472 23.86C17.0733 23.8947 16.4407 23.8687 15.574 23.782C15.054 23.73 14.69 23.7387 14.482 23.808C14.1353 23.9293 13.676 23.9293 13.104 23.808C12.792 23.7387 12.5233 23.73 12.298 23.782C12.0727 23.8513 11.8733 23.86 11.7 23.808C11.5613 23.7733 11.2493 23.7473 10.764 23.73C10.2787 23.7127 9.94067 23.6607 9.75 23.574C9.594 23.4873 9.35133 23.418 9.022 23.366C8.69267 23.314 8.43267 23.2447 8.242 23.158C8.01667 23.0713 7.748 23.0367 7.436 23.054C7.19333 23.0713 7.02867 23.0713 6.942 23.054C6.87267 23.0367 6.76867 22.9847 6.63 22.898C6.422 22.7593 6.19667 22.6553 5.954 22.586C5.45133 22.4127 4.85333 22.0313 4.16 21.442C3.848 21.1647 3.59667 20.9913 3.406 20.922C3.21533 20.8353 3.03333 20.6793 2.86 20.454C2.68667 20.246 2.522 20.0727 2.366 19.934C2.22733 19.8127 2.04533 19.596 1.82 19.284C1.59467 18.972 1.43867 18.7207 1.352 18.53C1.33467 18.478 1.29133 18.374 1.222 18.218C1.15267 18.0447 1.10933 17.9493 1.092 17.932C1.00533 17.7413 0.944667 17.4987 0.91 17.204C0.875333 16.892 0.814667 16.5107 0.728 16.06C0.658667 15.6267 0.65 15.2887 0.702 15.046C0.736667 14.8033 0.728 14.5867 0.676 14.396C0.641333 14.2053 0.676 13.9453 0.78 13.616C0.884 13.2693 0.953333 12.9747 0.988 12.732C1.00533 12.5587 1.04867 12.3767 1.118 12.186C1.20467 11.978 1.28267 11.8567 1.352 11.822C1.38667 11.7873 1.43 11.6833 1.482 11.51C1.534 11.3193 1.62067 11.1547 1.742 11.016C1.86333 10.86 1.98467 10.6607 2.106 10.418C2.21 10.1753 2.37467 9.95867 2.6 9.768C3.05067 9.42133 3.33667 9.17 3.458 9.014C3.57933 8.858 3.63133 8.676 3.614 8.468C3.57933 8.19067 3.666 7.67933 3.874 6.934C4.09933 6.17133 4.32467 5.56467 4.55 5.114C4.67133 4.906 4.732 4.75867 4.732 4.672C4.732 4.58533 4.81867 4.438 4.992 4.23C5.18267 4.022 5.278 3.892 5.278 3.84C5.278 3.71867 5.356 3.58867 5.512 3.45C5.68533 3.31133 5.86733 3.22467 6.058 3.19C6.838 3.034 7.36667 2.904 7.644 2.8C7.83467 2.73067 8.10333 2.73933 8.45 2.826C8.79667 2.91267 9.03067 3.034 9.152 3.19C9.58533 3.74467 9.81933 4.14333 9.854 4.386C9.88867 4.52467 9.94067 4.724 10.01 4.984C10.0793 5.17467 10.1747 5.452 10.296 5.816C10.4173 6.284 10.6427 6.60467 10.972 6.778C11.3187 6.934 11.6827 6.91667 12.064 6.726C12.2027 6.65667 12.3933 6.63933 12.636 6.674C12.8787 6.69133 13.078 6.674 13.234 6.622C13.39 6.57 13.6673 6.57 14.066 6.622C15.002 6.76067 15.574 6.882 15.782 6.986C15.9553 7.07267 16.1027 7.10733 16.224 7.09C16.328 7.05533 16.4753 6.89933 16.666 6.622C16.874 6.34467 16.9953 6.128 17.03 5.972C17.0473 5.816 17.1167 5.608 17.238 5.348C17.3767 5.088 17.5067 4.89733 17.628 4.776C17.7147 4.63733 17.7927 4.49 17.862 4.334C18.07 3.67533 18.3387 3.25933 18.668 3.086C18.8587 2.982 19.006 2.878 19.11 2.774C19.1967 2.70467 19.292 2.644 19.396 2.592ZM20.696 4.984C20.4533 4.776 20.1067 4.81933 19.656 5.114C19.2053 5.39133 18.9453 5.72933 18.876 6.128C18.772 6.78667 18.642 7.26333 18.486 7.558C18.33 7.83533 18.0093 8.16467 17.524 8.546C17.1253 8.87533 16.7787 9.07467 16.484 9.144C16.1893 9.196 15.756 9.16133 15.184 9.04C14.612 8.90133 14.196 8.82333 13.936 8.806C13.6933 8.77133 13.2773 8.754 12.688 8.754C11.908 8.77133 11.4573 8.806 11.336 8.858C11.1973 8.91 10.9287 8.936 10.53 8.936C10.1313 8.936 9.854 8.90133 9.698 8.832C9.14333 8.60667 8.79667 8.09533 8.658 7.298C8.606 6.95133 8.528 6.65667 8.424 6.414C8.30267 6.154 8.242 5.972 8.242 5.868C8.242 5.764 8.17267 5.608 8.034 5.4C7.91267 5.192 7.80867 5.062 7.722 5.01C7.49667 4.88867 7.21067 4.94067 6.864 5.166C6.51733 5.374 6.344 5.608 6.344 5.868C6.344 5.92 6.28333 6.024 6.162 6.18C6.02333 6.35333 5.94533 6.50933 5.928 6.648C5.91067 6.76933 5.876 7.04667 5.824 7.48C5.70267 8.38133 5.486 9.15267 5.174 9.794C4.862 10.418 4.38533 11.042 3.744 11.666C3.38 12.0473 3.16333 12.2813 3.094 12.368C3.042 12.4547 3.016 12.5847 3.016 12.758C3.016 12.9833 2.98133 13.1567 2.912 13.278C2.808 13.434 2.756 14.1187 2.756 15.332C2.73867 16.2507 2.81667 16.8747 2.99 17.204C3.05933 17.3773 3.11133 17.568 3.146 17.776C3.18067 17.9667 3.26733 18.1227 3.406 18.244C3.562 18.3653 3.70933 18.5213 3.848 18.712C3.98667 18.9027 4.16 19.0847 4.368 19.258C4.576 19.414 4.76667 19.5093 4.94 19.544C5.07867 19.5613 5.304 19.674 5.616 19.882C5.94533 20.0727 6.20533 20.2547 6.396 20.428C7.15867 21.156 8.294 21.5373 9.802 21.572C10.842 21.5893 11.6047 21.676 12.09 21.832C12.3153 21.9013 12.7487 21.91 13.39 21.858C14.0487 21.806 14.508 21.8147 14.768 21.884C15.3227 22.0227 16.0853 22.0053 17.056 21.832C18.0267 21.6587 18.7633 21.4073 19.266 21.078C19.4913 20.9393 19.7513 20.8353 20.046 20.766C20.7047 20.5927 21.112 20.376 21.268 20.116C21.3547 19.9773 21.528 19.8213 21.788 19.648C22.204 19.388 22.5853 19.0327 22.932 18.582C23.296 18.114 23.478 17.75 23.478 17.49C23.478 17.334 23.5733 17.0567 23.764 16.658C23.9027 16.3807 23.9807 16.2073 23.998 16.138C24.0153 16.0513 24.0067 15.9387 23.972 15.8C23.9027 15.6267 23.8767 15.4707 23.894 15.332C23.946 14.188 23.9373 13.5553 23.868 13.434C23.816 13.3127 23.7553 13.1307 23.686 12.888C23.634 12.6453 23.5127 12.446 23.322 12.29C23.1487 12.134 23.0273 11.9693 22.958 11.796C22.8887 11.6227 22.7933 11.4667 22.672 11.328C22.5507 11.1893 22.4553 11.0333 22.386 10.86C22.334 10.6693 22.2473 10.4527 22.126 10.21C21.918 9.77667 21.8313 9.21333 21.866 8.52C21.866 8.26 21.762 7.93067 21.554 7.532C21.346 7.13333 21.216 6.804 21.164 6.544C21.1293 6.26667 21.0773 6.04133 21.008 5.868C20.9387 5.69467 20.904 5.53 20.904 5.374C20.904 5.23533 20.8347 5.10533 20.696 4.984ZM7.826 14.292C8.12067 14.136 8.38067 14.1187 8.606 14.24C8.84867 14.344 9.048 14.5087 9.204 14.734C9.36 14.942 9.42067 15.1933 9.386 15.488C9.36867 15.7653 9.24733 15.9993 9.022 16.19C8.93533 16.2593 8.736 16.294 8.424 16.294C8.12933 16.2767 7.904 16.2333 7.748 16.164C7.47067 16.0253 7.34067 15.722 7.358 15.254C7.37533 14.7687 7.53133 14.448 7.826 14.292ZM17.394 14.214C17.706 14.162 18.0093 14.266 18.304 14.526C18.5987 14.7687 18.746 15.0547 18.746 15.384C18.746 15.5227 18.6767 15.7133 18.538 15.956C18.4167 16.1987 18.304 16.3373 18.2 16.372C18.096 16.4067 17.8967 16.4067 17.602 16.372C17.3073 16.32 17.1167 16.2593 17.03 16.19C16.718 15.9127 16.6053 15.54 16.692 15.072C16.7787 14.5867 17.0127 14.3007 17.394 14.214Z" fill="black"/>
<path d="M46.078 6.882C46.3553 6.74333 46.598 6.76067 46.806 6.934C46.8753 6.986 46.9967 7.038 47.17 7.09C47.3953 7.17667 47.5253 7.41067 47.56 7.792C47.612 8.156 47.6207 9.222 47.586 10.99C47.586 11.458 47.638 11.718 47.742 11.77C47.846 11.822 48.1927 11.77 48.782 11.614C49.2153 11.4927 49.5967 11.4927 49.926 11.614C50.134 11.6833 50.3073 11.7007 50.446 11.666C50.6193 11.6487 50.7667 11.744 50.888 11.952C51.0093 12.16 51.0613 12.394 51.044 12.654C51.044 12.914 50.9573 13.07 50.784 13.122C50.6453 13.174 50.5153 13.2347 50.394 13.304C50.0993 13.4773 49.8567 13.5813 49.666 13.616C49.4927 13.6507 49.1027 13.6767 48.496 13.694C47.6987 13.7113 47.3 13.7287 47.3 13.746C47.2827 13.746 47.274 13.8933 47.274 14.188C47.2913 14.4653 47.2653 14.6907 47.196 14.864C47.1093 15.02 47.0833 15.2367 47.118 15.514C47.1527 15.7567 47.17 16.3633 47.17 17.334C47.17 18.2873 47.1527 18.816 47.118 18.92C47.0833 19.0413 46.7887 19.2753 46.234 19.622C46.0433 19.7433 45.8267 19.7347 45.584 19.596C45.3587 19.44 45.246 19.232 45.246 18.972C45.246 18.764 45.194 18.5213 45.09 18.244C44.9687 17.9667 44.934 17.7153 44.986 17.49C45.0553 17.2647 45.0727 16.892 45.038 16.372C45.0033 15.852 45.038 15.4793 45.142 15.254C45.2287 15.0287 45.2373 14.786 45.168 14.526C45.116 14.2487 45.1333 14.0147 45.22 13.824C45.2893 13.616 45.3153 13.3213 45.298 12.94C45.2633 12.5413 45.2807 12.29 45.35 12.186C45.402 12.082 45.402 11.926 45.35 11.718C45.3153 11.4927 45.35 11.2587 45.454 11.016C45.5407 10.7733 45.584 10.4613 45.584 10.08C45.584 8.69333 45.6273 7.87 45.714 7.61C45.7487 7.48867 45.7833 7.34133 45.818 7.168C45.8353 7.04667 45.922 6.95133 46.078 6.882ZM38.512 7.35C38.6853 7.28067 39.006 7.246 39.474 7.246C39.9593 7.246 40.2887 7.272 40.462 7.324C40.6527 7.376 40.93 7.402 41.294 7.402C41.658 7.41933 41.9267 7.48867 42.1 7.61C42.2733 7.73133 42.4467 7.792 42.62 7.792C42.9147 7.792 43.1487 7.96533 43.322 8.312C43.3913 8.48533 43.4953 8.69333 43.634 8.936C43.8247 9.26533 43.92 9.872 43.92 10.756C43.92 12.1947 43.6947 13.434 43.244 14.474C43.088 14.8727 42.9927 15.1327 42.958 15.254C42.9407 15.3753 42.932 15.6093 42.932 15.956C42.9493 16.632 42.7847 17.152 42.438 17.516C42.0913 17.88 41.684 17.958 41.216 17.75C41.0947 17.6807 40.982 17.6547 40.878 17.672C40.7913 17.672 40.6007 17.724 40.306 17.828C39.9767 17.9493 39.5867 17.9927 39.136 17.958C38.6853 17.906 38.278 17.7847 37.914 17.594C37.7233 17.49 37.5933 17.438 37.524 17.438C37.4547 17.4207 37.3333 17.438 37.16 17.49C36.9867 17.542 36.8653 17.568 36.796 17.568C36.744 17.568 36.64 17.5333 36.484 17.464C36.2587 17.3773 36.042 17.3427 35.834 17.36C35.4527 17.412 35.1493 17.2473 34.924 16.866C34.8373 16.6927 34.7333 16.5453 34.612 16.424C34.0573 15.8 33.7453 14.734 33.676 13.226C33.6413 12.4633 33.6413 12.03 33.676 11.926C33.7107 11.822 33.728 11.5967 33.728 11.25C33.728 10.886 33.754 10.5913 33.806 10.366C33.858 10.1233 33.858 9.898 33.806 9.69C33.7193 9.30867 33.7973 8.97067 34.04 8.676C34.144 8.55467 34.222 8.40733 34.274 8.234C34.3433 8.00867 34.4907 7.82667 34.716 7.688C34.9413 7.54933 35.1493 7.49733 35.34 7.532C35.444 7.56667 35.5913 7.54933 35.782 7.48C35.9727 7.428 36.432 7.41067 37.16 7.428C37.888 7.428 38.3387 7.402 38.512 7.35ZM40.332 9.456C39.9507 9.31733 39.6733 9.28267 39.5 9.352C39.396 9.38667 39.162 9.41267 38.798 9.43C38.4167 9.46467 38.0353 9.52533 37.654 9.612C37.29 9.69867 37.004 9.742 36.796 9.742C36.4493 9.742 36.2327 9.86333 36.146 10.106C36.0767 10.3313 36.0333 10.9467 36.016 11.952C36.016 12.888 36.042 13.512 36.094 13.824C36.1633 14.1187 36.3453 14.5173 36.64 15.02C36.7787 15.28 36.9173 15.4533 37.056 15.54C37.212 15.6093 37.4287 15.6267 37.706 15.592C37.9487 15.5747 38.148 15.592 38.304 15.644C38.5987 15.7307 38.8587 15.7133 39.084 15.592C39.2227 15.5227 39.5 15.4793 39.916 15.462C40.2973 15.4447 40.5487 15.4013 40.67 15.332C40.7913 15.2453 40.8953 15.0893 40.982 14.864C41.0513 14.6733 41.1293 14.4567 41.216 14.214C41.424 13.6593 41.528 12.9747 41.528 12.16C41.528 12.056 41.528 11.9087 41.528 11.718C41.528 11.51 41.528 11.3367 41.528 11.198C41.528 11.042 41.528 10.9207 41.528 10.834C41.528 9.96733 41.2767 9.534 40.774 9.534C40.6527 9.534 40.5053 9.508 40.332 9.456ZM65.1029 7.324C65.2069 7.22 65.3629 7.17667 65.5709 7.194C65.6229 7.21133 65.7182 7.22867 65.8569 7.246C66.0129 7.26333 66.1169 7.272 66.1689 7.272C66.3769 7.30667 66.5156 7.38467 66.5849 7.506C66.6542 7.62733 66.7236 7.896 66.7929 8.312C66.8276 8.64133 66.8449 9.23067 66.8449 10.08C66.8449 10.912 66.8189 11.3713 66.7669 11.458C66.7496 11.4927 66.7669 11.6227 66.8189 11.848C66.8882 12.0733 66.8796 12.3073 66.7929 12.55C66.7236 12.7927 66.6976 13.0613 66.7149 13.356C66.7496 13.6507 66.7322 13.8933 66.6629 14.084C66.5762 14.2573 66.5502 14.4567 66.5849 14.682C66.6369 15.046 66.6629 15.6787 66.6629 16.58C66.6802 17.4813 66.6629 18.0533 66.6109 18.296C66.5589 18.5213 66.4029 18.7467 66.1429 18.972C65.8829 19.1973 65.6576 19.3013 65.4669 19.284C65.0509 19.1973 64.8169 18.9373 64.7649 18.504C64.7302 18.2093 64.6609 17.9493 64.5569 17.724C64.3836 17.3253 64.3316 16.3287 64.4009 14.734C64.4009 14.474 64.3836 14.2747 64.3489 14.136C64.3142 13.9627 64.3316 13.7893 64.4009 13.616C64.4876 13.4427 64.5049 13.1913 64.4529 12.862C64.4182 12.5327 64.4182 12.264 64.4529 12.056C64.4876 11.8653 64.5136 11.6313 64.5309 11.354C64.5309 11.1113 64.5569 10.8947 64.6089 10.704C64.6609 10.496 64.6869 9.99333 64.6869 9.196C64.6869 8.55467 64.7042 8.13 64.7389 7.922C64.7909 7.714 64.9122 7.51467 65.1029 7.324ZM55.4569 7.532C55.6649 7.46267 55.8642 7.454 56.0549 7.506C56.2109 7.558 56.3929 7.558 56.6009 7.506C56.8262 7.454 57.0342 7.47133 57.2249 7.558C57.4329 7.62733 57.7189 7.67067 58.0829 7.688C58.4642 7.688 58.7762 7.75733 59.0189 7.896C59.2442 8.052 59.4089 8.13 59.5129 8.13C59.8422 8.13 60.2582 8.468 60.7609 9.144C61.2809 9.80267 61.5842 10.418 61.6709 10.99C61.8269 11.9607 61.8616 12.7407 61.7749 13.33C61.7056 13.9193 61.5062 14.474 61.1769 14.994C60.9689 15.306 60.8216 15.6093 60.7349 15.904C60.6136 16.2853 60.4489 16.5973 60.2409 16.84C60.0502 17.0827 59.8596 17.204 59.6689 17.204C59.5822 17.204 59.4609 17.2473 59.3049 17.334C59.1489 17.4207 58.9236 17.5247 58.6289 17.646C58.3342 17.75 58.1436 17.802 58.0569 17.802C57.9702 17.802 57.8056 17.8453 57.5629 17.932C57.0949 18.1227 56.7136 18.0967 56.4189 17.854C56.2456 17.7153 56.0636 17.6633 55.8729 17.698C55.6996 17.7327 55.5349 17.7067 55.3789 17.62C55.3789 17.6027 55.1796 17.49 54.7809 17.282C54.4169 17.0913 54.0182 16.762 53.5849 16.294C53.1689 15.826 52.9002 15.4187 52.7789 15.072C52.4496 14.1533 52.3196 13.5553 52.3889 13.278C52.4409 13.07 52.4409 12.81 52.3889 12.498C52.3542 12.2553 52.3889 11.9173 52.4929 11.484C52.5969 11.0507 52.7356 10.678 52.9089 10.366C53.0302 10.158 53.1256 9.95 53.1949 9.742C53.3162 9.30867 53.5589 9.00533 53.9229 8.832C54.0442 8.76267 54.2869 8.546 54.6509 8.182C55.0322 7.80067 55.3009 7.584 55.4569 7.532ZM57.6149 9.976C57.1122 9.976 56.7656 9.95867 56.5749 9.924C56.3496 9.88933 56.1069 9.95867 55.8469 10.132C55.5869 10.288 55.4569 10.444 55.4569 10.6C55.4569 10.652 55.4049 10.7213 55.3009 10.808C55.1102 10.964 54.9889 11.2153 54.9369 11.562C54.9022 11.77 54.8329 11.978 54.7289 12.186C54.4342 12.7753 54.4776 13.46 54.8589 14.24C55.0669 14.656 55.1709 14.916 55.1709 15.02C55.1709 15.176 55.2316 15.306 55.3529 15.41C55.4916 15.4967 55.6736 15.54 55.8989 15.54C56.1762 15.5573 56.4189 15.6093 56.6269 15.696C56.8176 15.7827 56.9736 15.8173 57.0949 15.8C57.2336 15.7827 57.4069 15.696 57.6149 15.54C57.8056 15.4187 58.0222 15.306 58.2649 15.202C58.4902 15.1153 58.6462 15.0287 58.7329 14.942C58.8369 14.838 58.9062 14.682 58.9409 14.474C58.9582 14.266 59.0276 14.084 59.1489 13.928C59.3569 13.7027 59.4782 13.3473 59.5129 12.862C59.5649 12.3767 59.5216 11.9693 59.3829 11.64C59.2442 11.328 59.1576 11.0853 59.1229 10.912C59.0709 10.548 58.9409 10.3053 58.7329 10.184C58.5249 10.0453 58.1522 9.976 57.6149 9.976ZM83.6492 6.726C83.7359 6.65667 83.8746 6.63067 84.0652 6.648C84.2559 6.66533 84.3946 6.71733 84.4812 6.804C84.5679 6.87333 84.6979 6.934 84.8712 6.986C85.0446 7.05533 85.1572 7.142 85.2092 7.246C85.2786 7.35 85.3219 7.72267 85.3392 8.364C85.3739 9.00533 85.3652 9.378 85.3132 9.482C85.2612 9.56867 85.2266 10.106 85.2092 11.094C85.1919 12.082 85.1399 12.6973 85.0532 12.94C84.9492 13.1827 84.9146 13.4253 84.9492 13.668C84.9839 13.9973 85.0099 14.8553 85.0272 16.242C85.0446 17.6287 85.0359 18.452 85.0012 18.712C84.9839 18.8507 84.9232 18.9807 84.8192 19.102C84.7152 19.206 84.5072 19.362 84.1952 19.57C83.9872 19.6913 83.7532 19.6653 83.4932 19.492C83.2506 19.3187 83.1119 19.076 83.0772 18.764C83.0426 18.452 82.9906 18.2093 82.9212 18.036C82.8519 17.8627 82.8259 17.7153 82.8432 17.594C82.8606 17.49 82.8432 17.2907 82.7912 16.996C82.7392 16.7013 82.7132 16.3807 82.7132 16.034V15.54L82.3492 15.514C82.1239 15.4967 81.8726 15.5313 81.5952 15.618C81.0232 15.8087 80.6159 15.8693 80.3732 15.8C80.1479 15.7307 80.0006 15.5053 79.9312 15.124C79.8792 14.7253 79.9052 14.4567 80.0092 14.318C80.1132 14.162 80.3299 14.084 80.6592 14.084C80.8499 14.084 81.0492 13.98 81.2572 13.772C81.4826 13.564 81.6992 13.46 81.9072 13.46C82.1672 13.46 82.3579 13.4253 82.4792 13.356C82.6179 13.2693 82.7132 13.1307 82.7652 12.94C82.8346 12.7147 82.9039 12.55 82.9732 12.446C83.1119 12.2553 83.1292 12.082 83.0252 11.926C82.9386 11.7527 82.7826 11.6573 82.5572 11.64C82.3492 11.6053 82.1152 11.6487 81.8552 11.77C81.3699 12.03 81.0059 11.9693 80.7632 11.588C80.6592 11.4147 80.5466 11.2587 80.4252 11.12C80.3212 10.964 80.2259 10.8513 80.1392 10.782C80.0526 10.7127 80.0006 10.6867 79.9832 10.704C79.7406 10.9987 79.6192 11.3887 79.6192 11.874C79.6192 12.1687 79.5846 12.4113 79.5152 12.602C79.4459 12.7927 79.3939 13.1307 79.3592 13.616C79.3246 14.1013 79.2466 14.4567 79.1252 14.682C79.0906 14.7513 79.0299 14.8727 78.9432 15.046C78.8566 15.202 78.7959 15.306 78.7612 15.358C78.6572 15.5833 78.5966 15.9127 78.5792 16.346C78.5619 16.814 78.5272 17.1173 78.4752 17.256C78.4406 17.3773 78.3192 17.5333 78.1112 17.724C77.9032 17.9147 77.7299 18.0273 77.5912 18.062C77.4699 18.0967 77.3226 18.0533 77.1492 17.932C77.0452 17.88 76.8979 17.8453 76.7072 17.828C76.5166 17.7933 76.3952 17.802 76.3432 17.854C76.2739 17.9233 76.0052 18.01 75.5372 18.114C75.0866 18.2007 74.7486 18.2353 74.5232 18.218C74.3846 18.218 74.2199 18.1487 74.0292 18.01C73.7346 17.802 73.4486 17.776 73.1712 17.932C72.9459 18.088 72.7119 18.088 72.4692 17.932C72.3132 17.8453 72.1659 17.802 72.0272 17.802C71.7152 17.802 71.4726 17.6633 71.2992 17.386C71.2126 17.2473 71.0652 17.0913 70.8572 16.918C70.4586 16.6233 70.1379 16.1987 69.8952 15.644C69.6526 15.072 69.5226 14.4567 69.5052 13.798C69.4879 13.2433 69.4532 12.836 69.4012 12.576C69.3492 12.316 69.3579 12.0733 69.4272 11.848C69.4966 11.6573 69.5312 11.276 69.5312 10.704C69.5486 10.132 69.5312 9.69867 69.4792 9.404C69.4272 9.17867 69.4706 8.858 69.6092 8.442C69.7826 7.90467 69.9559 7.584 70.1292 7.48C70.3199 7.376 70.6146 7.41067 71.0132 7.584C71.2212 7.67067 71.3339 7.714 71.3512 7.714C71.5419 7.714 71.6632 8.21667 71.7152 9.222C71.7326 9.98467 71.8106 10.4267 71.9492 10.548C72.0879 10.6693 72.4692 10.652 73.0932 10.496C73.4399 10.4093 73.7172 10.366 73.9252 10.366C74.1332 10.366 74.3239 10.34 74.4972 10.288C74.6879 10.2533 74.9046 10.2533 75.1472 10.288C75.3899 10.3227 75.6066 10.3053 75.7972 10.236C76.0919 10.132 76.4039 10.132 76.7332 10.236C76.8892 10.288 77.0019 10.288 77.0712 10.236C77.1406 10.1667 77.2012 10.0107 77.2532 9.768C77.3226 9.49067 77.3746 9.31733 77.4092 9.248C77.4612 9.144 77.4872 8.90133 77.4872 8.52C77.4872 8.03467 77.5826 7.70533 77.7732 7.532C77.9812 7.34133 78.2499 7.324 78.5792 7.48C78.8392 7.584 79.0039 7.636 79.0732 7.636C79.5759 7.636 79.8359 8.29467 79.8532 9.612C79.8532 9.82 79.8619 9.976 79.8792 10.08C79.8966 10.184 79.9226 10.262 79.9572 10.314C79.9919 10.366 80.0352 10.3833 80.0872 10.366C80.1392 10.3313 80.2172 10.2793 80.3212 10.21C80.7372 9.846 81.2399 9.62067 81.8292 9.534C82.4532 9.46467 82.8606 9.31733 83.0512 9.092C83.2419 8.84933 83.3026 8.416 83.2332 7.792C83.1986 7.30667 83.3372 6.95133 83.6492 6.726ZM76.3172 12.446C76.0226 12.3767 75.7366 12.394 75.4592 12.498C75.2686 12.5673 75.0259 12.602 74.7312 12.602C74.4366 12.602 74.2372 12.628 74.1332 12.68C74.0292 12.732 73.6826 12.758 73.0932 12.758H72.2092L72.1572 13.148C72.1226 13.408 72.1486 13.694 72.2352 14.006C72.3219 14.2833 72.3912 14.5607 72.4432 14.838C72.4952 15.046 72.5992 15.2713 72.7552 15.514C72.9112 15.7393 73.0586 15.8953 73.1972 15.982C73.3532 16.0687 73.6999 16.112 74.2372 16.112C74.7746 16.0947 75.1386 16.0513 75.3292 15.982C75.5719 15.878 75.8579 15.7827 76.1872 15.696C76.5166 15.6267 76.7159 15.5487 76.7852 15.462C76.8719 15.3753 76.9412 15.176 76.9932 14.864C77.0452 14.5347 77.1146 14.2833 77.2012 14.11C77.3746 13.7633 77.4352 13.4253 77.3832 13.096C77.3312 12.7667 77.1839 12.5847 76.9412 12.55C76.7506 12.5327 76.5426 12.498 76.3172 12.446ZM92.0716 6.57C92.2103 6.53533 92.5916 6.52667 93.2156 6.544C93.8569 6.56133 94.2816 6.596 94.4896 6.648C94.6803 6.7 94.8709 6.7 95.0616 6.648C95.4256 6.57867 95.7376 6.648 95.9976 6.856C96.1536 6.99467 96.2836 7.04667 96.3876 7.012C96.6649 6.94267 96.9769 7.194 97.3236 7.766C97.6703 8.338 97.8003 8.81467 97.7136 9.196C97.6616 9.36933 97.6616 9.534 97.7136 9.69C97.7656 9.898 97.7743 10.496 97.7396 11.484C97.7223 11.9693 97.6356 12.3333 97.4796 12.576C97.3236 12.8187 97.0549 12.992 96.6736 13.096C96.2403 13.2347 95.9109 13.3473 95.6856 13.434C95.3563 13.5727 94.6283 13.6333 93.5016 13.616C93.0683 13.5987 92.5396 13.642 91.9156 13.746C91.7249 13.7807 91.4909 13.8153 91.2136 13.85C90.9536 13.8847 90.8149 13.9107 90.7976 13.928C90.5203 13.9627 90.3383 14.188 90.2516 14.604C90.1649 15.0027 90.1823 15.436 90.3036 15.904C90.4249 16.3547 90.6329 16.658 90.9276 16.814C91.0836 16.8833 91.3869 16.918 91.8376 16.918C92.2709 16.918 92.5743 16.944 92.7476 16.996C92.9036 17.048 93.3889 17.048 94.2036 16.996C95.0183 16.944 95.5816 16.9527 95.8936 17.022C96.2056 17.0913 96.3789 17.1087 96.4136 17.074C96.5523 16.9873 96.7516 17.1433 97.0116 17.542C97.1676 17.802 97.2543 17.9927 97.2716 18.114C97.2889 18.218 97.2369 18.3133 97.1156 18.4C96.9943 18.4693 96.8383 18.5993 96.6476 18.79C96.5263 18.9113 96.4309 18.9807 96.3616 18.998C96.3096 19.0153 96.1709 19.0153 95.9456 18.998C95.6683 18.9633 95.4603 18.972 95.3216 19.024C95.2003 19.076 94.6976 19.102 93.8136 19.102C92.9296 19.102 92.4529 19.076 92.3836 19.024C92.3143 18.972 92.0803 18.9547 91.6816 18.972C91.2656 18.972 90.9796 18.9287 90.8236 18.842C90.6676 18.738 90.4596 18.686 90.1996 18.686C89.7489 18.686 89.4629 18.556 89.3416 18.296C89.2896 18.192 89.1509 18.0533 88.9256 17.88C88.7003 17.7067 88.5443 17.516 88.4576 17.308C88.3189 16.9613 88.1889 16.6493 88.0676 16.372C87.7903 15.696 87.7816 15.1153 88.0416 14.63C88.1629 14.37 88.2669 14.0493 88.3536 13.668C88.4403 13.2867 88.5009 13.0527 88.5356 12.966C88.5876 12.8793 88.7349 12.732 88.9776 12.524C89.3763 12.16 89.7143 11.952 89.9916 11.9C90.2169 11.8653 90.4423 11.8047 90.6676 11.718C90.9103 11.6313 91.1529 11.588 91.3956 11.588C91.6209 11.588 91.8289 11.5533 92.0196 11.484C92.2103 11.4147 92.7129 11.38 93.5276 11.38C94.3249 11.38 94.8103 11.3367 94.9836 11.25C95.1569 11.146 95.2436 10.86 95.2436 10.392C95.2609 10.2013 95.2956 10.054 95.3476 9.95C95.4516 9.77667 95.4776 9.56 95.4256 9.3C95.3909 9.04 95.3043 8.84933 95.1656 8.728C95.0269 8.624 94.6976 8.55467 94.1776 8.52C93.6749 8.468 93.2676 8.47667 92.9556 8.546C92.7476 8.598 92.4963 8.65 92.2016 8.702C91.9589 8.71933 91.7509 8.754 91.5776 8.806C91.3523 8.858 91.1269 8.858 90.9016 8.806C90.6416 8.73667 90.4076 8.73667 90.1996 8.806C89.4543 9.014 88.9776 8.86667 88.7696 8.364C88.5269 7.80933 88.6223 7.41067 89.0556 7.168C89.0729 7.15067 89.1336 7.116 89.2376 7.064C89.3416 7.012 89.4196 6.96867 89.4716 6.934C89.6969 6.81267 90.3209 6.726 91.3436 6.674C91.6729 6.65667 91.9156 6.622 92.0716 6.57ZM101.302 6.96C101.492 6.78667 101.752 6.78667 102.082 6.96C102.272 7.064 102.411 7.116 102.498 7.116C102.636 7.116 102.74 7.23733 102.81 7.48C102.879 7.70533 102.948 8.14733 103.018 8.806C103.035 9.03133 103.018 9.55133 102.966 10.366C102.931 11.1807 102.914 11.64 102.914 11.744C102.914 11.8827 102.914 12.082 102.914 12.342C102.896 12.654 102.888 13.0007 102.888 13.382C102.888 13.7633 102.853 14.058 102.784 14.266C102.714 14.4567 102.706 14.7253 102.758 15.072C102.81 15.4013 102.827 15.696 102.81 15.956C102.775 16.1987 102.784 16.3893 102.836 16.528C102.888 16.684 102.888 17.0913 102.836 17.75C102.801 18.4087 102.749 18.7987 102.68 18.92C102.42 19.284 102.186 19.518 101.978 19.622C101.77 19.7087 101.536 19.6913 101.276 19.57C101.12 19.4833 101.007 19.3967 100.938 19.31C100.886 19.206 100.86 19.0587 100.86 18.868C100.86 18.6427 100.816 18.426 100.73 18.218C100.643 17.958 100.617 17.7413 100.652 17.568C100.669 17.3947 100.643 17.0307 100.574 16.476C100.487 15.9213 100.478 15.5747 100.548 15.436C100.669 15.2107 100.686 14.8987 100.6 14.5C100.548 14.3093 100.565 14.1187 100.652 13.928C100.738 13.72 100.764 13.4427 100.73 13.096C100.66 12.576 100.66 11.978 100.73 11.302C100.886 9.96733 100.938 8.97933 100.886 8.338C100.868 8.078 100.894 7.80933 100.964 7.532C101.05 7.25467 101.163 7.064 101.302 6.96Z" fill="black"/>
</svg>
