<svg width="22" height="24" viewBox="0 0 22 24" fill="none" xmlns="http://www.w3.org/2000/svg">
<path d="M0.75 13.95V18.79C0.75 18.965 0.820238 19.1329 0.945262 19.2567C1.07029 19.3805 1.23986 19.45 1.41667 19.45H7.41667M17.4167 13.95V18.79C17.4167 18.965 17.3464 19.1329 17.2214 19.2567C17.0964 19.3805 16.9268 19.45 16.75 19.45H11.8611M11.8611 4.05H16.75C16.9268 4.05 17.0964 4.11954 17.2214 4.24331C17.3464 4.36708 17.4167 4.53496 17.4167 4.71V9.55M0.75 9.55V4.71C0.75 4.53496 0.820238 4.36708 0.945262 4.24331C1.07029 4.11954 1.23986 4.05 1.41667 4.05H7.41667M11.8611 19.45V20.55C11.8611 21.1335 11.627 21.6931 11.2102 22.1056C10.7935 22.5182 10.2283 22.75 9.63889 22.75C9.04952 22.75 8.48429 22.5182 8.06754 22.1056C7.65079 21.6931 7.41667 21.1335 7.41667 20.55V19.45M0.75 9.55H1.86111C2.45048 9.55 3.01571 9.78179 3.43246 10.1944C3.84921 10.6069 4.08333 11.1665 4.08333 11.75C4.08333 12.3335 3.84921 12.8931 3.43246 13.3056C3.01571 13.7182 2.45048 13.95 1.86111 13.95H0.75M17.4167 9.55H18.5278C19.1171 9.55 19.6824 9.78179 20.0991 10.1944C20.5159 10.6069 20.75 11.1665 20.75 11.75C20.75 12.3335 20.5159 12.8931 20.0991 13.3056C19.6824 13.7182 19.1171 13.95 18.5278 13.95H17.4167M11.8611 4.05V2.95C11.8611 2.36652 11.627 1.80695 11.2102 1.39436C10.7935 0.981785 10.2283 0.75 9.63889 0.75C9.04952 0.75 8.48429 0.981785 8.06754 1.39436C7.65079 1.80695 7.41667 2.36652 7.41667 2.95V4.05" stroke="#2B3F6C" stroke-width="1.5" stroke-linecap="round" stroke-linejoin="round"/>
</svg>
